<mxfile host="app.diagrams.net" modified="2020-04-17T02:03:18.742Z" agent="5.0 (Windows)" etag="rg90mMg_ZGhie63WRc1K" version="12.9.12" type="github" pages="2">
  <diagram id="vUf6BWT9qRr7GdMB-Qx9" name="Summary">
    <mxGraphModel dx="1422" dy="831" grid="0" gridSize="11" guides="1" tooltips="1" connect="1" arrows="1" fold="1" page="1" pageScale="1" pageWidth="827" pageHeight="1169" math="0" shadow="0">
      <root>
        <mxCell id="0" />
        <mxCell id="1" parent="0" />
        <mxCell id="cHvppmLcAdFgNXs0Xrr1-27" value="" style="group" parent="1" vertex="1" connectable="0">
          <mxGeometry x="475.5" y="263" width="77" height="77" as="geometry" />
        </mxCell>
        <mxCell id="cHvppmLcAdFgNXs0Xrr1-2" value="" style="aspect=fixed;html=1;points=[];align=center;image;fontSize=12;image=img/lib/mscae/WebHosting.svg;" parent="cHvppmLcAdFgNXs0Xrr1-27" vertex="1">
          <mxGeometry x="7" y="19.25" width="57.75" height="57.75" as="geometry" />
        </mxCell>
        <mxCell id="cHvppmLcAdFgNXs0Xrr1-7" value="ECS_230" style="text;html=1;strokeColor=none;fillColor=none;align=center;verticalAlign=middle;whiteSpace=wrap;rounded=0;" parent="cHvppmLcAdFgNXs0Xrr1-27" vertex="1">
          <mxGeometry width="66" height="19.25" as="geometry" />
        </mxCell>
        <mxCell id="cHvppmLcAdFgNXs0Xrr1-29" value="" style="group" parent="1" vertex="1" connectable="0">
          <mxGeometry x="676" y="429" width="40" height="70" as="geometry" />
        </mxCell>
        <mxCell id="cHvppmLcAdFgNXs0Xrr1-1" value="" style="aspect=fixed;html=1;points=[];align=center;image;fontSize=12;image=img/lib/mscae/Azure_Database_for_MySQL_servers.svg;" parent="cHvppmLcAdFgNXs0Xrr1-29" vertex="1">
          <mxGeometry x="2" y="20" width="38" height="50" as="geometry" />
        </mxCell>
        <mxCell id="cHvppmLcAdFgNXs0Xrr1-12" value="&lt;div&gt;Mysql&lt;/div&gt;" style="text;html=1;strokeColor=none;fillColor=none;align=center;verticalAlign=middle;whiteSpace=wrap;rounded=0;" parent="cHvppmLcAdFgNXs0Xrr1-29" vertex="1">
          <mxGeometry width="40" height="20" as="geometry" />
        </mxCell>
        <mxCell id="ZZ2na8pF4SIIjjn5izW9-36" style="edgeStyle=entityRelationEdgeStyle;rounded=0;orthogonalLoop=1;jettySize=auto;html=1;entryX=-0.009;entryY=0.048;entryDx=0;entryDy=0;entryPerimeter=0;startArrow=none;startFill=0;strokeWidth=2;" edge="1" parent="1" source="cHvppmLcAdFgNXs0Xrr1-31" target="cHvppmLcAdFgNXs0Xrr1-36">
          <mxGeometry relative="1" as="geometry" />
        </mxCell>
        <mxCell id="ZZ2na8pF4SIIjjn5izW9-37" style="edgeStyle=entityRelationEdgeStyle;rounded=0;orthogonalLoop=1;jettySize=auto;html=1;startArrow=none;startFill=0;strokeWidth=2;dashed=1;strokeColor=#000000;entryX=-0.061;entryY=0.481;entryDx=0;entryDy=0;entryPerimeter=0;" edge="1" parent="1" source="cHvppmLcAdFgNXs0Xrr1-31" target="cHvppmLcAdFgNXs0Xrr1-2">
          <mxGeometry relative="1" as="geometry">
            <mxPoint x="473" y="311" as="targetPoint" />
          </mxGeometry>
        </mxCell>
        <mxCell id="cHvppmLcAdFgNXs0Xrr1-31" value="" style="aspect=fixed;pointerEvents=1;shadow=0;dashed=0;html=1;strokeColor=none;labelPosition=center;verticalLabelPosition=bottom;verticalAlign=top;align=center;fillColor=#00188D;shape=mxgraph.azure.load_balancer_generic;rounded=1;glass=0;comic=0;labelBackgroundColor=none;fontSize=15;fontColor=#FF0000;rotation=-90;" parent="1" vertex="1">
          <mxGeometry x="275" y="482" width="37" height="50" as="geometry" />
        </mxCell>
        <mxCell id="cHvppmLcAdFgNXs0Xrr1-35" value="" style="group" parent="1" vertex="1" connectable="0">
          <mxGeometry x="475.5" y="561" width="77" height="77" as="geometry" />
        </mxCell>
        <mxCell id="cHvppmLcAdFgNXs0Xrr1-36" value="" style="aspect=fixed;html=1;points=[];align=center;image;fontSize=12;image=img/lib/mscae/WebHosting.svg;" parent="cHvppmLcAdFgNXs0Xrr1-35" vertex="1">
          <mxGeometry x="7" y="19.25" width="57.75" height="57.75" as="geometry" />
        </mxCell>
        <mxCell id="cHvppmLcAdFgNXs0Xrr1-37" value="&lt;div&gt;ECS_233&lt;/div&gt;" style="text;html=1;strokeColor=none;fillColor=none;align=center;verticalAlign=middle;whiteSpace=wrap;rounded=0;" parent="cHvppmLcAdFgNXs0Xrr1-35" vertex="1">
          <mxGeometry width="66" height="19.25" as="geometry" />
        </mxCell>
        <mxCell id="ZZ2na8pF4SIIjjn5izW9-6" value="&lt;h1&gt;SLB-www&lt;/h1&gt;&lt;h3 class=&quot;sc-kgoBCf junNaK&quot;&gt;&lt;font size=&quot;1&quot;&gt;&lt;span style=&quot;font-weight: normal&quot;&gt;&lt;span class=&quot;sc-cMljjf jeJajC wind-rc-truncate__wrapper&quot; style=&quot;width: 100% ; position: relative&quot;&gt;&lt;span class=&quot;sc-brqgnP fbKdGm wind-rc-truncate&quot;&gt;&lt;span class=&quot;wind-rc-truncate__truncated&quot; style=&quot;font-size: 13px&quot;&gt;IP: 121.196.130.62&lt;/span&gt;&lt;/span&gt;&lt;/span&gt;&lt;/span&gt;&lt;/font&gt;&lt;/h3&gt;" style="text;html=1;strokeColor=none;fillColor=none;spacing=5;spacingTop=-20;whiteSpace=wrap;overflow=hidden;rounded=0;" vertex="1" parent="1">
          <mxGeometry x="226.75" y="293" width="135" height="66" as="geometry" />
        </mxCell>
        <mxCell id="ZZ2na8pF4SIIjjn5izW9-52" style="edgeStyle=entityRelationEdgeStyle;rounded=0;orthogonalLoop=1;jettySize=auto;html=1;startArrow=none;startFill=0;endArrow=none;endFill=0;strokeColor=#000000;strokeWidth=1;fontColor=#FF0000;entryX=-0.095;entryY=0.325;entryDx=0;entryDy=0;entryPerimeter=0;" edge="1" parent="1" source="ZZ2na8pF4SIIjjn5izW9-7" target="cHvppmLcAdFgNXs0Xrr1-2">
          <mxGeometry relative="1" as="geometry">
            <mxPoint x="473" y="297" as="targetPoint" />
          </mxGeometry>
        </mxCell>
        <mxCell id="ZZ2na8pF4SIIjjn5izW9-7" value="" style="aspect=fixed;pointerEvents=1;shadow=0;dashed=0;html=1;strokeColor=none;labelPosition=center;verticalLabelPosition=bottom;verticalAlign=top;align=center;fillColor=#00188D;shape=mxgraph.azure.load_balancer_generic;rounded=1;glass=0;comic=0;labelBackgroundColor=none;fontSize=15;fontColor=#FF0000;rotation=-90;" vertex="1" parent="1">
          <mxGeometry x="275.75" y="351" width="37" height="50" as="geometry" />
        </mxCell>
        <mxCell id="ZZ2na8pF4SIIjjn5izW9-8" value="&lt;h1&gt;SLB-shop&lt;/h1&gt;&lt;div style=&quot;font-size: 13px&quot;&gt;IP: &lt;span&gt;47.96.51.72&lt;/span&gt;&lt;/div&gt;" style="text;html=1;strokeColor=none;fillColor=none;spacing=5;spacingTop=-20;whiteSpace=wrap;overflow=hidden;rounded=0;" vertex="1" parent="1">
          <mxGeometry x="231" y="518" width="132" height="73" as="geometry" />
        </mxCell>
        <mxCell id="ZZ2na8pF4SIIjjn5izW9-9" value="阿里云dns" style="aspect=fixed;html=1;points=[];align=center;image;fontSize=12;image=img/lib/mscae/DNS.svg;" vertex="1" parent="1">
          <mxGeometry x="154" y="418" width="50" height="50" as="geometry" />
        </mxCell>
        <mxCell id="ZZ2na8pF4SIIjjn5izW9-26" style="edgeStyle=entityRelationEdgeStyle;rounded=0;orthogonalLoop=1;jettySize=auto;html=1;entryX=0.02;entryY=0.5;entryDx=0;entryDy=0;entryPerimeter=0;dashed=1;startArrow=blockThin;startFill=1;strokeWidth=1;strokeColor=#9999FF;" edge="1" parent="1" source="ZZ2na8pF4SIIjjn5izW9-15" target="ZZ2na8pF4SIIjjn5izW9-9">
          <mxGeometry relative="1" as="geometry" />
        </mxCell>
        <mxCell id="ZZ2na8pF4SIIjjn5izW9-35" style="edgeStyle=entityRelationEdgeStyle;rounded=0;orthogonalLoop=1;jettySize=auto;html=1;entryX=0.5;entryY=0;entryDx=0;entryDy=0;entryPerimeter=0;startArrow=none;startFill=0;strokeWidth=2;strokeColor=#FF3399;" edge="1" parent="1" source="ZZ2na8pF4SIIjjn5izW9-15" target="ZZ2na8pF4SIIjjn5izW9-7">
          <mxGeometry relative="1" as="geometry" />
        </mxCell>
        <mxCell id="ZZ2na8pF4SIIjjn5izW9-15" value="" style="aspect=fixed;html=1;points=[];align=center;image;fontSize=12;image=img/lib/mscae/VirtualMachineWindows.svg;" vertex="1" parent="1">
          <mxGeometry x="33" y="263" width="25" height="23" as="geometry" />
        </mxCell>
        <mxCell id="ZZ2na8pF4SIIjjn5izW9-34" style="edgeStyle=entityRelationEdgeStyle;rounded=0;orthogonalLoop=1;jettySize=auto;html=1;entryX=0.5;entryY=0;entryDx=0;entryDy=0;entryPerimeter=0;startArrow=none;startFill=0;strokeWidth=2;strokeColor=#FF3399;" edge="1" parent="1" source="ZZ2na8pF4SIIjjn5izW9-16" target="ZZ2na8pF4SIIjjn5izW9-7">
          <mxGeometry relative="1" as="geometry" />
        </mxCell>
        <mxCell id="ZZ2na8pF4SIIjjn5izW9-16" value="" style="aspect=fixed;html=1;points=[];align=center;image;fontSize=12;image=img/lib/mscae/Devices_Groups.svg;" vertex="1" parent="1">
          <mxGeometry x="33" y="333" width="30" height="30" as="geometry" />
        </mxCell>
        <mxCell id="ZZ2na8pF4SIIjjn5izW9-33" style="edgeStyle=entityRelationEdgeStyle;rounded=0;orthogonalLoop=1;jettySize=auto;html=1;entryX=0.5;entryY=0;entryDx=0;entryDy=0;startArrow=none;startFill=0;strokeWidth=2;strokeColor=#FF3399;entryPerimeter=0;" edge="1" parent="1" source="ZZ2na8pF4SIIjjn5izW9-20" target="cHvppmLcAdFgNXs0Xrr1-31">
          <mxGeometry relative="1" as="geometry" />
        </mxCell>
        <mxCell id="ZZ2na8pF4SIIjjn5izW9-20" value="" style="aspect=fixed;html=1;points=[];align=center;image;fontSize=12;image=img/lib/mscae/VirtualMachineWindows.svg;" vertex="1" parent="1">
          <mxGeometry x="33" y="632" width="25" height="23" as="geometry" />
        </mxCell>
        <mxCell id="ZZ2na8pF4SIIjjn5izW9-22" style="rounded=0;orthogonalLoop=1;jettySize=auto;html=1;strokeWidth=1;edgeStyle=entityRelationEdgeStyle;dashed=1;startArrow=blockThin;startFill=1;strokeColor=#9999FF;" edge="1" parent="1" source="ZZ2na8pF4SIIjjn5izW9-21">
          <mxGeometry relative="1" as="geometry">
            <mxPoint x="154" y="443" as="targetPoint" />
          </mxGeometry>
        </mxCell>
        <mxCell id="ZZ2na8pF4SIIjjn5izW9-32" style="edgeStyle=entityRelationEdgeStyle;rounded=0;orthogonalLoop=1;jettySize=auto;html=1;startArrow=none;startFill=0;strokeWidth=2;strokeColor=#FF3399;entryX=0.5;entryY=0;entryDx=0;entryDy=0;entryPerimeter=0;" edge="1" parent="1" source="ZZ2na8pF4SIIjjn5izW9-21" target="cHvppmLcAdFgNXs0Xrr1-31">
          <mxGeometry relative="1" as="geometry">
            <mxPoint x="264" y="506" as="targetPoint" />
          </mxGeometry>
        </mxCell>
        <mxCell id="ZZ2na8pF4SIIjjn5izW9-21" value="" style="aspect=fixed;html=1;points=[];align=center;image;fontSize=12;image=img/lib/mscae/Devices_Groups.svg;" vertex="1" parent="1">
          <mxGeometry x="28" y="561" width="30" height="30" as="geometry" />
        </mxCell>
        <mxCell id="ZZ2na8pF4SIIjjn5izW9-24" style="rounded=0;orthogonalLoop=1;jettySize=auto;html=1;strokeWidth=1;edgeStyle=entityRelationEdgeStyle;dashed=1;startArrow=blockThin;startFill=1;strokeColor=#9999FF;" edge="1" parent="1" target="ZZ2na8pF4SIIjjn5izW9-9">
          <mxGeometry relative="1" as="geometry">
            <mxPoint x="55" y="644" as="sourcePoint" />
            <mxPoint x="182" y="581" as="targetPoint" />
          </mxGeometry>
        </mxCell>
        <mxCell id="ZZ2na8pF4SIIjjn5izW9-25" style="rounded=0;orthogonalLoop=1;jettySize=auto;html=1;strokeWidth=1;edgeStyle=entityRelationEdgeStyle;dashed=1;startArrow=blockThin;startFill=1;exitX=1.033;exitY=0.467;exitDx=0;exitDy=0;exitPerimeter=0;strokeColor=#9999FF;" edge="1" parent="1" source="ZZ2na8pF4SIIjjn5izW9-16" target="ZZ2na8pF4SIIjjn5izW9-9">
          <mxGeometry relative="1" as="geometry">
            <mxPoint x="63" y="350.5" as="sourcePoint" />
            <mxPoint x="137" y="165" as="targetPoint" />
          </mxGeometry>
        </mxCell>
        <mxCell id="ZZ2na8pF4SIIjjn5izW9-29" value="" style="group" vertex="1" connectable="0" parent="1">
          <mxGeometry x="231" y="627" width="104.5" height="64" as="geometry" />
        </mxCell>
        <mxCell id="ZZ2na8pF4SIIjjn5izW9-19" value="EIP_233" style="aspect=fixed;html=1;points=[];align=center;image;fontSize=12;image=img/lib/mscae/Virtual_Network.svg;" vertex="1" parent="ZZ2na8pF4SIIjjn5izW9-29">
          <mxGeometry x="22.5" width="50" height="28.000000000000004" as="geometry" />
        </mxCell>
        <mxCell id="ZZ2na8pF4SIIjjn5izW9-27" value="&lt;span&gt;IP:116.62.71.134&lt;/span&gt;" style="text;html=1;strokeColor=none;fillColor=none;align=center;verticalAlign=middle;whiteSpace=wrap;rounded=0;" vertex="1" parent="ZZ2na8pF4SIIjjn5izW9-29">
          <mxGeometry y="44" width="104.5" height="20" as="geometry" />
        </mxCell>
        <mxCell id="ZZ2na8pF4SIIjjn5izW9-30" value="" style="group" vertex="1" connectable="0" parent="1">
          <mxGeometry x="231" y="197" width="104.5" height="66" as="geometry" />
        </mxCell>
        <mxCell id="ZZ2na8pF4SIIjjn5izW9-18" value="EIP_230" style="aspect=fixed;html=1;points=[];align=center;image;fontSize=12;image=img/lib/mscae/Virtual_Network.svg;" vertex="1" parent="ZZ2na8pF4SIIjjn5izW9-30">
          <mxGeometry x="27.25" width="50" height="28.000000000000004" as="geometry" />
        </mxCell>
        <mxCell id="ZZ2na8pF4SIIjjn5izW9-28" value="&lt;span&gt;IP:&lt;/span&gt;&lt;span&gt;47.98.38.187&lt;/span&gt;" style="text;html=1;strokeColor=none;fillColor=none;align=center;verticalAlign=middle;whiteSpace=wrap;rounded=0;" vertex="1" parent="ZZ2na8pF4SIIjjn5izW9-30">
          <mxGeometry y="46" width="104.5" height="20" as="geometry" />
        </mxCell>
        <mxCell id="ZZ2na8pF4SIIjjn5izW9-45" style="edgeStyle=none;rounded=0;orthogonalLoop=1;jettySize=auto;html=1;startArrow=classicThin;startFill=1;strokeColor=#b85450;strokeWidth=1;endArrow=none;endFill=0;exitX=0.36;exitY=1;exitDx=0;exitDy=0;exitPerimeter=0;fillColor=#f8cecc;" edge="1" parent="1" source="ZZ2na8pF4SIIjjn5izW9-31">
          <mxGeometry relative="1" as="geometry">
            <mxPoint x="517" y="572" as="targetPoint" />
          </mxGeometry>
        </mxCell>
        <mxCell id="ZZ2na8pF4SIIjjn5izW9-46" style="edgeStyle=none;rounded=0;orthogonalLoop=1;jettySize=auto;html=1;startArrow=classicThin;startFill=1;strokeColor=#b85450;strokeWidth=1;endArrow=none;endFill=0;entryX=0.216;entryY=1.035;entryDx=0;entryDy=0;entryPerimeter=0;fillColor=#f8cecc;" edge="1" parent="1" source="ZZ2na8pF4SIIjjn5izW9-31" target="cHvppmLcAdFgNXs0Xrr1-2">
          <mxGeometry relative="1" as="geometry" />
        </mxCell>
        <mxCell id="ZZ2na8pF4SIIjjn5izW9-31" value="" style="aspect=fixed;html=1;points=[];align=center;image;fontSize=12;image=img/lib/mscae/Storage_sync_service.svg;" vertex="1" parent="1">
          <mxGeometry x="533" y="439" width="50" height="50" as="geometry" />
        </mxCell>
        <mxCell id="ZZ2na8pF4SIIjjn5izW9-38" value="权重100%" style="text;html=1;align=center;verticalAlign=middle;resizable=0;points=[];autosize=1;fillColor=#fff2cc;strokeColor=#d6b656;fontStyle=1" vertex="1" parent="1">
          <mxGeometry x="396" y="532" width="66" height="22" as="geometry" />
        </mxCell>
        <mxCell id="ZZ2na8pF4SIIjjn5izW9-39" value="权重0%" style="text;html=1;align=center;verticalAlign=middle;resizable=0;points=[];autosize=1;fillColor=#f8cecc;strokeColor=#b85450;fontStyle=1" vertex="1" parent="1">
          <mxGeometry x="385" y="401" width="55" height="22" as="geometry" />
        </mxCell>
        <mxCell id="ZZ2na8pF4SIIjjn5izW9-48" value="NFS" style="text;html=1;align=center;verticalAlign=middle;resizable=0;points=[];autosize=1;" vertex="1" parent="1">
          <mxGeometry x="539" y="489" width="44" height="22" as="geometry" />
        </mxCell>
        <mxCell id="ZZ2na8pF4SIIjjn5izW9-49" value="&lt;div&gt;&lt;b&gt;Sess storage&lt;/b&gt;&lt;/div&gt;&lt;div&gt;会话共享(/home/sessions)&lt;br&gt;&lt;/div&gt;" style="shape=callout;whiteSpace=wrap;html=1;perimeter=calloutPerimeter;rounded=1;shadow=0;glass=0;comic=0;fillColor=none;gradientColor=none;position2=0.29;" vertex="1" parent="1">
          <mxGeometry x="528" y="359" width="148" height="80" as="geometry" />
        </mxCell>
        <mxCell id="ZZ2na8pF4SIIjjn5izW9-50" style="edgeStyle=entityRelationEdgeStyle;rounded=0;orthogonalLoop=1;jettySize=auto;html=1;startArrow=none;startFill=0;endArrow=classic;endFill=1;strokeColor=#000000;strokeWidth=1;fontColor=#FF0000;exitX=0.996;exitY=0.81;exitDx=0;exitDy=0;exitPerimeter=0;" edge="1" parent="1" source="cHvppmLcAdFgNXs0Xrr1-36" target="cHvppmLcAdFgNXs0Xrr1-1">
          <mxGeometry relative="1" as="geometry" />
        </mxCell>
        <mxCell id="ZZ2na8pF4SIIjjn5izW9-51" style="edgeStyle=entityRelationEdgeStyle;rounded=0;orthogonalLoop=1;jettySize=auto;html=1;entryX=0;entryY=0.5;entryDx=0;entryDy=0;startArrow=none;startFill=0;endArrow=classicThin;endFill=1;strokeColor=#000000;strokeWidth=1;fontColor=#FF0000;entryPerimeter=0;exitX=0.978;exitY=0.827;exitDx=0;exitDy=0;exitPerimeter=0;" edge="1" parent="1" source="cHvppmLcAdFgNXs0Xrr1-2" target="cHvppmLcAdFgNXs0Xrr1-1">
          <mxGeometry relative="1" as="geometry" />
        </mxCell>
        <mxCell id="ZZ2na8pF4SIIjjn5izW9-53" style="edgeStyle=entityRelationEdgeStyle;rounded=0;orthogonalLoop=1;jettySize=auto;html=1;entryX=0.026;entryY=0.619;entryDx=0;entryDy=0;entryPerimeter=0;startArrow=none;startFill=0;endArrow=classic;endFill=1;strokeColor=#001DBC;strokeWidth=2;fontColor=#FF0000;fillColor=#0050ef;" edge="1" parent="1" source="ZZ2na8pF4SIIjjn5izW9-19" target="cHvppmLcAdFgNXs0Xrr1-36">
          <mxGeometry relative="1" as="geometry" />
        </mxCell>
        <mxCell id="ZZ2na8pF4SIIjjn5izW9-54" style="edgeStyle=entityRelationEdgeStyle;rounded=0;orthogonalLoop=1;jettySize=auto;html=1;startArrow=none;startFill=0;endArrow=classic;endFill=1;strokeColor=#001DBC;strokeWidth=2;fontColor=#FF0000;entryX=-0.061;entryY=0.307;entryDx=0;entryDy=0;entryPerimeter=0;fillColor=#0050ef;" edge="1" parent="1" source="ZZ2na8pF4SIIjjn5izW9-18" target="cHvppmLcAdFgNXs0Xrr1-2">
          <mxGeometry relative="1" as="geometry">
            <mxPoint x="473" y="300" as="targetPoint" />
          </mxGeometry>
        </mxCell>
        <mxCell id="ZZ2na8pF4SIIjjn5izW9-58" style="edgeStyle=entityRelationEdgeStyle;rounded=0;orthogonalLoop=1;jettySize=auto;html=1;entryX=-0.065;entryY=0.571;entryDx=0;entryDy=0;entryPerimeter=0;startArrow=none;startFill=0;endArrow=classicThin;endFill=1;strokeColor=#001DBC;strokeWidth=2;fontColor=#FF0000;fillColor=#0050ef;" edge="1" parent="1" source="ZZ2na8pF4SIIjjn5izW9-56" target="ZZ2na8pF4SIIjjn5izW9-18">
          <mxGeometry relative="1" as="geometry" />
        </mxCell>
        <mxCell id="ZZ2na8pF4SIIjjn5izW9-59" style="edgeStyle=entityRelationEdgeStyle;rounded=0;orthogonalLoop=1;jettySize=auto;html=1;startArrow=none;startFill=0;endArrow=classicThin;endFill=1;strokeColor=#001DBC;strokeWidth=2;fontColor=#FF0000;fillColor=#0050ef;elbow=vertical;" edge="1" parent="1" source="ZZ2na8pF4SIIjjn5izW9-57" target="ZZ2na8pF4SIIjjn5izW9-19">
          <mxGeometry relative="1" as="geometry" />
        </mxCell>
        <mxCell id="ZZ2na8pF4SIIjjn5izW9-61" value="" style="group" vertex="1" connectable="0" parent="1">
          <mxGeometry x="20.5" y="169" width="55" height="50" as="geometry" />
        </mxCell>
        <mxCell id="ZZ2na8pF4SIIjjn5izW9-56" value="" style="pointerEvents=1;shadow=0;dashed=0;html=1;strokeColor=none;fillColor=#505050;labelPosition=center;verticalLabelPosition=bottom;verticalAlign=top;outlineConnect=0;align=center;shape=mxgraph.office.users.administrator;rounded=1;glass=0;comic=0;fontColor=#FF0000;" vertex="1" parent="ZZ2na8pF4SIIjjn5izW9-61">
          <mxGeometry x="11" width="33" height="28" as="geometry" />
        </mxCell>
        <mxCell id="ZZ2na8pF4SIIjjn5izW9-60" value="管理员" style="text;html=1;align=center;verticalAlign=middle;resizable=0;points=[];autosize=1;fontColor=#FF0000;" vertex="1" parent="ZZ2na8pF4SIIjjn5izW9-61">
          <mxGeometry y="28" width="55" height="22" as="geometry" />
        </mxCell>
        <mxCell id="ZZ2na8pF4SIIjjn5izW9-63" value="" style="group" vertex="1" connectable="0" parent="1">
          <mxGeometry x="20.5" y="704" width="55" height="50" as="geometry" />
        </mxCell>
        <mxCell id="ZZ2na8pF4SIIjjn5izW9-57" value="" style="pointerEvents=1;shadow=0;dashed=0;html=1;strokeColor=none;fillColor=#505050;labelPosition=center;verticalLabelPosition=bottom;verticalAlign=top;outlineConnect=0;align=center;shape=mxgraph.office.users.administrator;rounded=1;glass=0;comic=0;fontColor=#FF0000;" vertex="1" parent="ZZ2na8pF4SIIjjn5izW9-63">
          <mxGeometry x="12.5" width="33" height="28" as="geometry" />
        </mxCell>
        <mxCell id="ZZ2na8pF4SIIjjn5izW9-62" value="管理员" style="text;html=1;align=center;verticalAlign=middle;resizable=0;points=[];autosize=1;fontColor=#FF0000;" vertex="1" parent="ZZ2na8pF4SIIjjn5izW9-63">
          <mxGeometry y="28" width="55" height="22" as="geometry" />
        </mxCell>
        <mxCell id="cHvppmLcAdFgNXs0Xrr1-14" value="ECS_230" style="swimlane;fontStyle=1;childLayout=stackLayout;horizontal=1;startSize=26;fillColor=#FFCCFF;horizontalStack=0;resizeParent=1;resizeParentMax=0;resizeLast=0;collapsible=1;marginBottom=0;rounded=1;glass=0;shadow=0;comic=0;strokeWidth=2;swimlaneFillColor=none;fontColor=#FF0000;fontSize=15;swimlaneLine=1;gradientColor=none;" parent="1" vertex="1">
          <mxGeometry x="440" y="29" width="192" height="234" as="geometry" />
        </mxCell>
        <mxCell id="cHvppmLcAdFgNXs0Xrr1-16" value="www.thmarket.com(nginx)" style="text;strokeColor=#000000;fillColor=none;align=left;verticalAlign=top;spacingLeft=4;spacingRight=4;overflow=hidden;rotatable=0;points=[[0,0.5],[1,0.5]];portConstraint=eastwest;labelBorderColor=none;labelBackgroundColor=none;" parent="cHvppmLcAdFgNXs0Xrr1-14" vertex="1">
          <mxGeometry y="26" width="192" height="26" as="geometry" />
        </mxCell>
        <mxCell id="cHvppmLcAdFgNXs0Xrr1-17" value="jh.thmarket.com(apache)" style="text;strokeColor=#000000;fillColor=none;align=left;verticalAlign=top;spacingLeft=4;spacingRight=4;overflow=hidden;rotatable=0;points=[[0,0.5],[1,0.5]];portConstraint=eastwest;" parent="cHvppmLcAdFgNXs0Xrr1-14" vertex="1">
          <mxGeometry y="52" width="192" height="26" as="geometry" />
        </mxCell>
        <mxCell id="cHvppmLcAdFgNXs0Xrr1-24" value="mapp.thmarket.com(node.js)" style="text;strokeColor=#000000;fillColor=none;align=left;verticalAlign=top;spacingLeft=4;spacingRight=4;overflow=hidden;rotatable=0;points=[[0,0.5],[1,0.5]];portConstraint=eastwest;" parent="cHvppmLcAdFgNXs0Xrr1-14" vertex="1">
          <mxGeometry y="78" width="192" height="26" as="geometry" />
        </mxCell>
        <mxCell id="cHvppmLcAdFgNXs0Xrr1-25" value="集货数据库mysql(MariaDB)" style="text;strokeColor=#000000;fillColor=none;align=left;verticalAlign=top;spacingLeft=4;spacingRight=4;overflow=hidden;rotatable=0;points=[[0,0.5],[1,0.5]];portConstraint=eastwest;" parent="cHvppmLcAdFgNXs0Xrr1-14" vertex="1">
          <mxGeometry y="104" width="192" height="26" as="geometry" />
        </mxCell>
        <mxCell id="cHvppmLcAdFgNXs0Xrr1-26" value="RabbitMQ" style="text;strokeColor=#000000;fillColor=none;align=left;verticalAlign=top;spacingLeft=4;spacingRight=4;overflow=hidden;rotatable=0;points=[[0,0.5],[1,0.5]];portConstraint=eastwest;" parent="cHvppmLcAdFgNXs0Xrr1-14" vertex="1">
          <mxGeometry y="130" width="192" height="26" as="geometry" />
        </mxCell>
        <mxCell id="cHvppmLcAdFgNXs0Xrr1-39" value="MongoDB" style="text;strokeColor=#000000;fillColor=none;align=left;verticalAlign=top;spacingLeft=4;spacingRight=4;overflow=hidden;rotatable=0;points=[[0,0.5],[1,0.5]];portConstraint=eastwest;" parent="cHvppmLcAdFgNXs0Xrr1-14" vertex="1">
          <mxGeometry y="156" width="192" height="26" as="geometry" />
        </mxCell>
        <mxCell id="cHvppmLcAdFgNXs0Xrr1-48" value="Data_provider" style="text;strokeColor=#000000;fillColor=none;align=left;verticalAlign=top;spacingLeft=4;spacingRight=4;overflow=hidden;rotatable=0;points=[[0,0.5],[1,0.5]];portConstraint=eastwest;" parent="cHvppmLcAdFgNXs0Xrr1-14" vertex="1">
          <mxGeometry y="182" width="192" height="26" as="geometry" />
        </mxCell>
        <mxCell id="ZZ2na8pF4SIIjjn5izW9-43" value="shop.thmarket.com(nginx)" style="text;strokeColor=#000000;fillColor=none;align=left;verticalAlign=top;spacingLeft=4;spacingRight=4;overflow=hidden;rotatable=0;points=[[0,0.5],[1,0.5]];portConstraint=eastwest;" vertex="1" parent="cHvppmLcAdFgNXs0Xrr1-14">
          <mxGeometry y="208" width="192" height="26" as="geometry" />
        </mxCell>
        <mxCell id="cHvppmLcAdFgNXs0Xrr1-41" value="ECS_233" style="swimlane;fontStyle=1;childLayout=stackLayout;horizontal=1;startSize=26;fillColor=#f8cecc;horizontalStack=0;resizeParent=1;resizeParentMax=0;resizeLast=0;collapsible=1;marginBottom=0;rounded=1;glass=0;shadow=1;comic=0;strokeWidth=2;swimlaneFillColor=none;fontSize=15;strokeColor=#b85450;fontColor=#FF0000;" parent="1" vertex="1">
          <mxGeometry x="462" y="643" width="192" height="156" as="geometry">
            <mxRectangle x="308" y="618" width="99" height="26" as="alternateBounds" />
          </mxGeometry>
        </mxCell>
        <mxCell id="cHvppmLcAdFgNXs0Xrr1-42" value="shop.thmarket.com(nginx)" style="text;strokeColor=#000000;fillColor=none;align=left;verticalAlign=top;spacingLeft=4;spacingRight=4;overflow=hidden;rotatable=0;points=[[0,0.5],[1,0.5]];portConstraint=eastwest;labelBorderColor=none;labelBackgroundColor=none;" parent="cHvppmLcAdFgNXs0Xrr1-41" vertex="1">
          <mxGeometry y="26" width="192" height="26" as="geometry" />
        </mxCell>
        <mxCell id="cHvppmLcAdFgNXs0Xrr1-43" value="download.thmarket.com(nginx)" style="text;strokeColor=#000000;fillColor=none;align=left;verticalAlign=top;spacingLeft=4;spacingRight=4;overflow=hidden;rotatable=0;points=[[0,0.5],[1,0.5]];portConstraint=eastwest;" parent="cHvppmLcAdFgNXs0Xrr1-41" vertex="1">
          <mxGeometry y="52" width="192" height="26" as="geometry" />
        </mxCell>
        <mxCell id="cHvppmLcAdFgNXs0Xrr1-45" value="集货数据库mysql(MariaDB)" style="text;strokeColor=#000000;fillColor=none;align=left;verticalAlign=top;spacingLeft=4;spacingRight=4;overflow=hidden;rotatable=0;points=[[0,0.5],[1,0.5]];portConstraint=eastwest;" parent="cHvppmLcAdFgNXs0Xrr1-41" vertex="1">
          <mxGeometry y="78" width="192" height="26" as="geometry" />
        </mxCell>
        <mxCell id="cHvppmLcAdFgNXs0Xrr1-46" value="RabbitMQ" style="text;strokeColor=#000000;fillColor=none;align=left;verticalAlign=top;spacingLeft=4;spacingRight=4;overflow=hidden;rotatable=0;points=[[0,0.5],[1,0.5]];portConstraint=eastwest;" parent="cHvppmLcAdFgNXs0Xrr1-41" vertex="1">
          <mxGeometry y="104" width="192" height="26" as="geometry" />
        </mxCell>
        <mxCell id="cHvppmLcAdFgNXs0Xrr1-47" value="MongoDB" style="text;strokeColor=#000000;fillColor=none;align=left;verticalAlign=top;spacingLeft=4;spacingRight=4;overflow=hidden;rotatable=0;points=[[0,0.5],[1,0.5]];portConstraint=eastwest;" parent="cHvppmLcAdFgNXs0Xrr1-41" vertex="1">
          <mxGeometry y="130" width="192" height="26" as="geometry" />
        </mxCell>
      </root>
    </mxGraphModel>
  </diagram>
  <diagram id="1sstjrAGVpGRXZeq_v7s" name="Page-2">
    <mxGraphModel dx="1422" dy="831" grid="1" gridSize="10" guides="1" tooltips="1" connect="1" arrows="1" fold="1" page="1" pageScale="1" pageWidth="827" pageHeight="1169" math="0" shadow="0">
      <root>
        <mxCell id="dUz_jNXiwfiLDWq_GOyF-0" />
        <mxCell id="dUz_jNXiwfiLDWq_GOyF-1" parent="dUz_jNXiwfiLDWq_GOyF-0" />
        <mxCell id="PAVnvZqkEvRA6gwRhKcl-0" value="" style="group" vertex="1" connectable="0" parent="dUz_jNXiwfiLDWq_GOyF-1">
          <mxGeometry x="414" y="237" width="77" height="77" as="geometry" />
        </mxCell>
        <mxCell id="PAVnvZqkEvRA6gwRhKcl-1" value="" style="aspect=fixed;html=1;points=[];align=center;image;fontSize=12;image=img/lib/mscae/WebHosting.svg;" vertex="1" parent="PAVnvZqkEvRA6gwRhKcl-0">
          <mxGeometry x="7" y="19.25" width="57.75" height="57.75" as="geometry" />
        </mxCell>
        <mxCell id="PAVnvZqkEvRA6gwRhKcl-2" value="ECS_230" style="text;html=1;strokeColor=none;fillColor=none;align=center;verticalAlign=middle;whiteSpace=wrap;rounded=0;" vertex="1" parent="PAVnvZqkEvRA6gwRhKcl-0">
          <mxGeometry width="66" height="19.25" as="geometry" />
        </mxCell>
        <mxCell id="PAVnvZqkEvRA6gwRhKcl-3" value="" style="group" vertex="1" connectable="0" parent="dUz_jNXiwfiLDWq_GOyF-1">
          <mxGeometry x="660" y="460" width="40" height="70" as="geometry" />
        </mxCell>
        <mxCell id="PAVnvZqkEvRA6gwRhKcl-4" value="" style="aspect=fixed;html=1;points=[];align=center;image;fontSize=12;image=img/lib/mscae/Azure_Database_for_MySQL_servers.svg;" vertex="1" parent="PAVnvZqkEvRA6gwRhKcl-3">
          <mxGeometry x="2" y="20" width="38" height="50" as="geometry" />
        </mxCell>
        <mxCell id="PAVnvZqkEvRA6gwRhKcl-5" value="&lt;div&gt;Mysql&lt;/div&gt;" style="text;html=1;strokeColor=none;fillColor=none;align=center;verticalAlign=middle;whiteSpace=wrap;rounded=0;" vertex="1" parent="PAVnvZqkEvRA6gwRhKcl-3">
          <mxGeometry width="40" height="20" as="geometry" />
        </mxCell>
        <mxCell id="PAVnvZqkEvRA6gwRhKcl-6" style="edgeStyle=entityRelationEdgeStyle;rounded=0;orthogonalLoop=1;jettySize=auto;html=1;entryX=-0.009;entryY=0.048;entryDx=0;entryDy=0;entryPerimeter=0;startArrow=none;startFill=0;strokeWidth=2;" edge="1" source="PAVnvZqkEvRA6gwRhKcl-8" target="PAVnvZqkEvRA6gwRhKcl-10" parent="dUz_jNXiwfiLDWq_GOyF-1">
          <mxGeometry relative="1" as="geometry" />
        </mxCell>
        <mxCell id="PAVnvZqkEvRA6gwRhKcl-7" style="edgeStyle=entityRelationEdgeStyle;rounded=0;orthogonalLoop=1;jettySize=auto;html=1;startArrow=none;startFill=0;strokeWidth=2;dashed=1;strokeColor=#000000;entryX=-0.061;entryY=0.481;entryDx=0;entryDy=0;entryPerimeter=0;" edge="1" source="PAVnvZqkEvRA6gwRhKcl-8" target="PAVnvZqkEvRA6gwRhKcl-1" parent="dUz_jNXiwfiLDWq_GOyF-1">
          <mxGeometry relative="1" as="geometry">
            <mxPoint x="356.25" y="332" as="targetPoint" />
          </mxGeometry>
        </mxCell>
        <mxCell id="PAVnvZqkEvRA6gwRhKcl-8" value="" style="aspect=fixed;pointerEvents=1;shadow=0;dashed=0;html=1;strokeColor=none;labelPosition=center;verticalLabelPosition=bottom;verticalAlign=top;align=center;fillColor=#00188D;shape=mxgraph.azure.load_balancer_generic;rounded=1;glass=0;comic=0;labelBackgroundColor=none;fontSize=15;fontColor=#FF0000;rotation=-90;" vertex="1" parent="dUz_jNXiwfiLDWq_GOyF-1">
          <mxGeometry x="110" y="525" width="37" height="50" as="geometry" />
        </mxCell>
        <mxCell id="PAVnvZqkEvRA6gwRhKcl-9" value="" style="group" vertex="1" connectable="0" parent="dUz_jNXiwfiLDWq_GOyF-1">
          <mxGeometry x="422.25" y="600" width="77" height="77" as="geometry" />
        </mxCell>
        <mxCell id="PAVnvZqkEvRA6gwRhKcl-10" value="" style="aspect=fixed;html=1;points=[];align=center;image;fontSize=12;image=img/lib/mscae/WebHosting.svg;" vertex="1" parent="PAVnvZqkEvRA6gwRhKcl-9">
          <mxGeometry x="7" y="19.25" width="57.75" height="57.75" as="geometry" />
        </mxCell>
        <mxCell id="PAVnvZqkEvRA6gwRhKcl-11" value="&lt;div&gt;ECS_233&lt;/div&gt;" style="text;html=1;strokeColor=none;fillColor=none;align=center;verticalAlign=middle;whiteSpace=wrap;rounded=0;" vertex="1" parent="PAVnvZqkEvRA6gwRhKcl-9">
          <mxGeometry width="66" height="19.25" as="geometry" />
        </mxCell>
        <mxCell id="PAVnvZqkEvRA6gwRhKcl-12" value="&lt;h1&gt;SLB-www&lt;/h1&gt;&lt;h3 class=&quot;sc-kgoBCf junNaK&quot;&gt;&lt;font size=&quot;1&quot;&gt;&lt;span style=&quot;font-weight: normal&quot;&gt;&lt;span class=&quot;sc-cMljjf jeJajC wind-rc-truncate__wrapper&quot; style=&quot;width: 100% ; position: relative&quot;&gt;&lt;span class=&quot;sc-brqgnP fbKdGm wind-rc-truncate&quot;&gt;&lt;span class=&quot;wind-rc-truncate__truncated&quot; style=&quot;font-size: 13px&quot;&gt;IP: 121.196.130.62&lt;/span&gt;&lt;/span&gt;&lt;/span&gt;&lt;/span&gt;&lt;/font&gt;&lt;/h3&gt;" style="text;html=1;strokeColor=none;fillColor=none;spacing=5;spacingTop=-20;whiteSpace=wrap;overflow=hidden;rounded=0;" vertex="1" parent="dUz_jNXiwfiLDWq_GOyF-1">
          <mxGeometry x="83.75" y="306" width="135" height="66" as="geometry" />
        </mxCell>
        <mxCell id="PAVnvZqkEvRA6gwRhKcl-13" style="edgeStyle=entityRelationEdgeStyle;rounded=0;orthogonalLoop=1;jettySize=auto;html=1;startArrow=none;startFill=0;endArrow=none;endFill=0;strokeColor=#000000;strokeWidth=1;fontColor=#FF0000;entryX=-0.095;entryY=0.325;entryDx=0;entryDy=0;entryPerimeter=0;" edge="1" source="PAVnvZqkEvRA6gwRhKcl-14" target="PAVnvZqkEvRA6gwRhKcl-1" parent="dUz_jNXiwfiLDWq_GOyF-1">
          <mxGeometry relative="1" as="geometry">
            <mxPoint x="356.25" y="318" as="targetPoint" />
          </mxGeometry>
        </mxCell>
        <mxCell id="PAVnvZqkEvRA6gwRhKcl-14" value="" style="aspect=fixed;pointerEvents=1;shadow=0;dashed=0;html=1;strokeColor=none;labelPosition=center;verticalLabelPosition=bottom;verticalAlign=top;align=center;fillColor=#00188D;shape=mxgraph.azure.load_balancer_generic;rounded=1;glass=0;comic=0;labelBackgroundColor=none;fontSize=15;fontColor=#FF0000;rotation=-90;" vertex="1" parent="dUz_jNXiwfiLDWq_GOyF-1">
          <mxGeometry x="118.5" y="372" width="37" height="50" as="geometry" />
        </mxCell>
        <mxCell id="PAVnvZqkEvRA6gwRhKcl-15" value="&lt;h1&gt;SLB-shop&lt;/h1&gt;&lt;div style=&quot;font-size: 13px&quot;&gt;IP: &lt;span&gt;47.96.51.72&lt;/span&gt;&lt;/div&gt;" style="text;html=1;strokeColor=none;fillColor=none;spacing=5;spacingTop=-20;whiteSpace=wrap;overflow=hidden;rounded=0;" vertex="1" parent="dUz_jNXiwfiLDWq_GOyF-1">
          <mxGeometry x="77.25" y="560" width="132" height="73" as="geometry" />
        </mxCell>
        <mxCell id="PAVnvZqkEvRA6gwRhKcl-16" value="" style="group" vertex="1" connectable="0" parent="dUz_jNXiwfiLDWq_GOyF-1">
          <mxGeometry x="84.75" y="670" width="104.5" height="64" as="geometry" />
        </mxCell>
        <mxCell id="PAVnvZqkEvRA6gwRhKcl-17" value="EIP_233" style="aspect=fixed;html=1;points=[];align=center;image;fontSize=12;image=img/lib/mscae/Virtual_Network.svg;" vertex="1" parent="PAVnvZqkEvRA6gwRhKcl-16">
          <mxGeometry x="22.5" width="50" height="28.000000000000004" as="geometry" />
        </mxCell>
        <mxCell id="PAVnvZqkEvRA6gwRhKcl-18" value="&lt;span&gt;IP:116.62.71.134&lt;/span&gt;" style="text;html=1;strokeColor=none;fillColor=none;align=center;verticalAlign=middle;whiteSpace=wrap;rounded=0;" vertex="1" parent="PAVnvZqkEvRA6gwRhKcl-16">
          <mxGeometry y="44" width="104.5" height="20" as="geometry" />
        </mxCell>
        <mxCell id="PAVnvZqkEvRA6gwRhKcl-19" value="" style="group" vertex="1" connectable="0" parent="dUz_jNXiwfiLDWq_GOyF-1">
          <mxGeometry x="83.75" y="210" width="104.5" height="66" as="geometry" />
        </mxCell>
        <mxCell id="PAVnvZqkEvRA6gwRhKcl-20" value="EIP_230" style="aspect=fixed;html=1;points=[];align=center;image;fontSize=12;image=img/lib/mscae/Virtual_Network.svg;" vertex="1" parent="PAVnvZqkEvRA6gwRhKcl-19">
          <mxGeometry x="27.25" width="50" height="28.000000000000004" as="geometry" />
        </mxCell>
        <mxCell id="PAVnvZqkEvRA6gwRhKcl-21" value="&lt;span&gt;IP:&lt;/span&gt;&lt;span&gt;47.98.38.187&lt;/span&gt;" style="text;html=1;strokeColor=none;fillColor=none;align=center;verticalAlign=middle;whiteSpace=wrap;rounded=0;" vertex="1" parent="PAVnvZqkEvRA6gwRhKcl-19">
          <mxGeometry y="46" width="104.5" height="20" as="geometry" />
        </mxCell>
        <mxCell id="PAVnvZqkEvRA6gwRhKcl-22" style="edgeStyle=none;rounded=0;orthogonalLoop=1;jettySize=auto;html=1;startArrow=classicThin;startFill=1;strokeColor=#b85450;strokeWidth=1;endArrow=none;endFill=0;fillColor=#f8cecc;entryX=0.25;entryY=1;entryDx=0;entryDy=0;" edge="1" source="PAVnvZqkEvRA6gwRhKcl-24" parent="dUz_jNXiwfiLDWq_GOyF-1" target="PAVnvZqkEvRA6gwRhKcl-11">
          <mxGeometry relative="1" as="geometry">
            <mxPoint x="400.25" y="593" as="targetPoint" />
          </mxGeometry>
        </mxCell>
        <mxCell id="PAVnvZqkEvRA6gwRhKcl-23" style="edgeStyle=none;rounded=0;orthogonalLoop=1;jettySize=auto;html=1;startArrow=classicThin;startFill=1;strokeColor=#b85450;strokeWidth=1;endArrow=none;endFill=0;entryX=0.216;entryY=1.035;entryDx=0;entryDy=0;entryPerimeter=0;fillColor=#f8cecc;" edge="1" source="PAVnvZqkEvRA6gwRhKcl-24" target="PAVnvZqkEvRA6gwRhKcl-1" parent="dUz_jNXiwfiLDWq_GOyF-1">
          <mxGeometry relative="1" as="geometry" />
        </mxCell>
        <mxCell id="PAVnvZqkEvRA6gwRhKcl-24" value="" style="aspect=fixed;html=1;points=[];align=center;image;fontSize=12;image=img/lib/mscae/Storage_sync_service.svg;" vertex="1" parent="dUz_jNXiwfiLDWq_GOyF-1">
          <mxGeometry x="416.25" y="460" width="50" height="50" as="geometry" />
        </mxCell>
        <mxCell id="PAVnvZqkEvRA6gwRhKcl-25" value="权重100%" style="text;html=1;align=center;verticalAlign=middle;resizable=0;points=[];autosize=1;fillColor=#fff2cc;strokeColor=#d6b656;fontStyle=1" vertex="1" parent="dUz_jNXiwfiLDWq_GOyF-1">
          <mxGeometry x="218.75" y="553" width="66" height="22" as="geometry" />
        </mxCell>
        <mxCell id="PAVnvZqkEvRA6gwRhKcl-26" value="权重0%" style="text;html=1;align=center;verticalAlign=middle;resizable=0;points=[];autosize=1;fillColor=#f8cecc;strokeColor=#b85450;fontStyle=1" vertex="1" parent="dUz_jNXiwfiLDWq_GOyF-1">
          <mxGeometry x="218.75" y="428" width="55" height="22" as="geometry" />
        </mxCell>
        <mxCell id="PAVnvZqkEvRA6gwRhKcl-27" value="NFS" style="text;html=1;align=center;verticalAlign=middle;resizable=0;points=[];autosize=1;" vertex="1" parent="dUz_jNXiwfiLDWq_GOyF-1">
          <mxGeometry x="422.25" y="510" width="44" height="22" as="geometry" />
        </mxCell>
        <mxCell id="PAVnvZqkEvRA6gwRhKcl-28" value="&lt;div&gt;&lt;b&gt;Sess storage&lt;/b&gt;&lt;/div&gt;&lt;div&gt;会话共享(/home/sessions)&lt;br&gt;&lt;/div&gt;" style="shape=callout;whiteSpace=wrap;html=1;perimeter=calloutPerimeter;rounded=1;shadow=0;glass=0;comic=0;fillColor=none;gradientColor=none;position2=0.29;" vertex="1" parent="dUz_jNXiwfiLDWq_GOyF-1">
          <mxGeometry x="416.25" y="410" width="148" height="80" as="geometry" />
        </mxCell>
        <mxCell id="PAVnvZqkEvRA6gwRhKcl-29" style="edgeStyle=entityRelationEdgeStyle;rounded=0;orthogonalLoop=1;jettySize=auto;html=1;startArrow=none;startFill=0;endArrow=classic;endFill=1;strokeColor=#000000;strokeWidth=1;fontColor=#FF0000;exitX=0.996;exitY=0.81;exitDx=0;exitDy=0;exitPerimeter=0;" edge="1" source="PAVnvZqkEvRA6gwRhKcl-10" target="PAVnvZqkEvRA6gwRhKcl-4" parent="dUz_jNXiwfiLDWq_GOyF-1">
          <mxGeometry relative="1" as="geometry" />
        </mxCell>
        <mxCell id="PAVnvZqkEvRA6gwRhKcl-30" style="edgeStyle=entityRelationEdgeStyle;rounded=0;orthogonalLoop=1;jettySize=auto;html=1;entryX=0;entryY=0.5;entryDx=0;entryDy=0;startArrow=none;startFill=0;endArrow=classicThin;endFill=1;strokeColor=#000000;strokeWidth=1;fontColor=#FF0000;entryPerimeter=0;exitX=0.978;exitY=0.827;exitDx=0;exitDy=0;exitPerimeter=0;" edge="1" source="PAVnvZqkEvRA6gwRhKcl-1" target="PAVnvZqkEvRA6gwRhKcl-4" parent="dUz_jNXiwfiLDWq_GOyF-1">
          <mxGeometry relative="1" as="geometry" />
        </mxCell>
        <mxCell id="PAVnvZqkEvRA6gwRhKcl-31" style="edgeStyle=entityRelationEdgeStyle;rounded=0;orthogonalLoop=1;jettySize=auto;html=1;entryX=0.026;entryY=0.619;entryDx=0;entryDy=0;entryPerimeter=0;startArrow=none;startFill=0;endArrow=classic;endFill=1;strokeColor=#001DBC;strokeWidth=2;fontColor=#FF0000;fillColor=#0050ef;" edge="1" source="PAVnvZqkEvRA6gwRhKcl-17" target="PAVnvZqkEvRA6gwRhKcl-10" parent="dUz_jNXiwfiLDWq_GOyF-1">
          <mxGeometry relative="1" as="geometry" />
        </mxCell>
        <mxCell id="PAVnvZqkEvRA6gwRhKcl-32" style="edgeStyle=entityRelationEdgeStyle;rounded=0;orthogonalLoop=1;jettySize=auto;html=1;startArrow=none;startFill=0;endArrow=classic;endFill=1;strokeColor=#001DBC;strokeWidth=2;fontColor=#FF0000;entryX=-0.061;entryY=0.307;entryDx=0;entryDy=0;entryPerimeter=0;fillColor=#0050ef;" edge="1" source="PAVnvZqkEvRA6gwRhKcl-20" target="PAVnvZqkEvRA6gwRhKcl-1" parent="dUz_jNXiwfiLDWq_GOyF-1">
          <mxGeometry relative="1" as="geometry">
            <mxPoint x="356.25" y="321" as="targetPoint" />
          </mxGeometry>
        </mxCell>
      </root>
    </mxGraphModel>
  </diagram>
</mxfile>
